#!OML:ASF E:\motion texture\Top Level 1\Subject 1\Session 1\male.ASF
:FULLY-SPECIFIED
:DEGREES
504
root -15.6849 17.8583 3.90204 1051.29 -86.4699 -1051.47
lowerback 5.08525 -4.40137 -5.81177
upperback -1.78478 -6.21082 1.7106
thorax -3.8966 -2.92081 5.50696
lowerneck -20.9846 -1.63709 -4.30995
upperneck 17.3387 -2.35227 6.28041
head 9.02325 -0.709894 2.54355
rclavicle 2.48729e-014 1.66979e-014
rhumerus -60.2143 -14.3727 -48.6169
rradius 15.9957
rwrist 19.679
rhand -6.65455 -10.7749
rfingers 7.12502
rthumb 19.203 -39.8468
lclavicle 2.48729e-014 1.66979e-014
lhumerus 16.221 -20.6961 80.1473
lradius 68.609
lwrist 2.87364
lhand -12.9717 7.43919
lfingers 7.12502
lthumb 13.1205 37.0064
rfemur -81.9963 -9.23587 25.1057
rtibia 89.2396
rfoot 918.518 -86.9226
rtoes 20.8042
lfemur 9.95829 -6.03369 -27.7697
ltibia 15.3808
lfoot 1064.11 -2.87817
ltoes -0.661271
505
root -15.8201 17.8418 3.89247 1051.03 -86.3382 -1050.85
lowerback 4.84117 -4.39938 -5.87954
upperback -1.86655 -6.2016 1.69392
thorax -3.84076 -2.91553 5.5078
lowerneck -20.9778 -1.67415 -4.32816
upperneck 17.2554 -2.39582 6.29451
head 8.99641 -0.730188 2.54431
rclavicle 9.15652e-015 3.57812e-015
rhumerus -59.7244 -14.3191 -49.644
rradius 16.2312
rwrist 19.0571
rhand -6.78992 -10.7968
rfingers 7.12502
rthumb 19.0729 -39.8816
lclavicle 9.15652e-015 3.57812e-015
lhumerus 15.5786 -20.7478 80.4648
lradius 68.4893
lwrist 2.99406
lhand -12.9471 7.51658
lfingers 7.12502
lthumb 13.1442 37.0823
rfemur -80.3621 -9.46937 24.8981
rtibia 88.4775
rfoot 914.765 -251.664
rtoes 21.0455
lfemur 10.0612 -5.94772 -27.7175
ltibia 15.3708
lfoot 1064.01 -3.25219
ltoes -1.06048
506
root -15.9585 17.825 3.88234 1051.47 -86.2036 -1050.94
lowerback 4.59388 -4.40205 -5.9113
upperback -1.9568 -6.19578 1.6886
thorax -3.79388 -2.91226 5.501
lowerneck -20.957 -1.71408 -4.3497
upperneck 17.1856 -2.44407 6.31003
head 8.97209 -0.753042 2.54561
rclavicle -1.98412e-014 1.98785e-015
rhumerus -59.2036 -14.2157 -50.7517
rradius 16.5062
rwrist 18.3516
rhand -6.91607 -10.8171
rfingers 7.12502
rthumb 18.9515 -39.9139
lclavicle -1.98412e-014 1.98785e-015
lhumerus 14.8489 -20.8443 80.8034
lradius 68.3364
lwrist 3.11893
lhand -12.922 7.61565
lfingers 7.12502
lthumb 13.1684 37.1798
rfemur -78.5993 -9.70605 24.6782
rtibia 86.061
rfoot 916.149 -230.39
rtoes 21.4458
lfemur 10.171 -5.86929 -27.6148
ltibia 15.369
lfoot 1063.93 -3.64383
ltoes -1.46216
507
root -16.1004 17.8078 3.8716 1052.5 -86.0697 -1051.63
lowerback 4.33759 -4.40672 -5.90663
upperback -2.05007 -6.18957 1.69461
thorax -3.74752 -2.90962 5.48518
lowerneck -20.9315 -1.75978 -4.38022
upperneck 17.1321 -2.50022 6.33211
head 8.95328 -0.779572 2.5498
rclavicle -1.33434e-014 3.97569e-016
rhumerus -58.6538 -14.0618 -51.9377
rradius 16.8241
rwrist 17.5673
rhand -7.05004 -10.8404
rfingers 7.12502
rthumb 18.8227 -39.9497
lclavicle -1.33434e-014 3.97569e-016
lhumerus 14.0451 -20.9877 81.1601
lradius 68.1367
lwrist 3.22887
lhand -12.9051 7.726
lfingers 7.12502
lthumb 13.1847 37.2891
rfemur -76.7088 -9.93619 24.449
rtibia 82.6661
rfoot 917.345 -209.243
rtoes 22.0071
lfemur 10.2967 -5.79535 -27.4611
ltibia 15.3698
lfoot 1063.87 -4.04667
ltoes -1.86373
508
root -16.2463 17.7901 3.86026 1054 -85.9346 -1052.79
lowerback 4.07236 -4.41195 -5.86959
upperback -2.15113 -6.18181 1.70948
thorax -3.70667 -2.90667 5.4603
lowerneck -20.8856 -1.81016 -4.4187
upperneck 17.0902 -2.56294 6.35855
head 8.93548 -0.80965 2.55601
rclavicle -2.16675e-014 7.95139e-015
rhumerus -58.0875 -13.8657 -53.1736
rradius 17.1774
rwrist 16.7398
rhand -7.18325 -10.8802
rfingers 7.12502
rthumb 18.6946 -40.0019
lclavicle -2.16675e-014 7.95139e-015
lhumerus 13.1632 -21.1813 81.5381
lradius 67.8824
lwrist 3.31939
lhand -12.9053 7.85949
lfingers 7.12502
lthumb 13.1845 37.4226
rfemur -74.7001 -10.151 24.2062
rtibia 79.3575
rfoot 918.558 -188.183
rtoes 22.6663
lfemur 10.4395 -5.72413 -27.2648
ltibia 15.3759
lfoot 1063.83 -4.45284
ltoes -2.29452
